<svg width="576" height="648" viewBox="0 0 576 648" fill="none" xmlns="http://www.w3.org/2000/svg">
<path fill-rule="evenodd" clip-rule="evenodd" d="M576 288C576 407.332 503.424 509.716 400 553.412C346.536 576 328 588 312 620C310.442 623.116 309.112 626.08 307.876 628.832C302.766 640.22 299.274 648 288 648C276.726 648 273.234 640.22 268.124 628.832C266.888 626.08 265.558 623.116 264 620C248 588 228 576 176 553.412C72.578 509.716 0 407.332 0 288C0 128.942 128.942 0 288 0C447.06 0 576 128.942 576 288ZM448 288C448 376.366 376.366 448 288 448C199.635 448 128 376.366 128 288C128 199.635 199.635 128 288 128C376.366 128 448 199.635 448 288Z" fill="#FF8800"/>
</svg>
